<svg viewBox="0 0 1080 1080" fill="none" xmlns="http://www.w3.org/2000/svg">      <defs>  <filter id="filter" x="-20%" y="-20%" width="140%" height="140%" filterUnits="objectBoundingBox" primitiveUnits="userSpaceOnUse" color-interpolation-filters="linearRGB">    <feMorphology operator="dilate" radius="20 20" in="SourceAlpha" result="morphology"/>    <feFlood flood-color="#ffffff" flood-opacity="1" result="flood"/>    <feComposite in="flood" in2="morphology" operator="in" result="composite"/>    <feMerge result="merge">          <feMergeNode in="composite" result="mergeNode"/>      <feMergeNode in="SourceGraphic" result="mergeNode1"/>      </feMerge>  </filter></defs>      <g id="notion-avatar" filter="url(#filter)">        <g id="notion-avatar-face" fill="#ffffff">      <!--?xml version="1.0" encoding="UTF-8"?-->    <title>Face/ 1</title>    <g id="Face/-1" stroke="none" stroke-width="1" fill-rule="evenodd" stroke-linecap="round" stroke-linejoin="round">        <path d="M532,379 C664.54834,379 772,486.45166 772,619 C772,751.54834 664.54834,879 532,879 C435.13263,879 351.668898,801.612202 313.752775,718.980575 L313.322946,718.989282 L312,719 C267.81722,719 232,683.18278 232,639 C232,599.134956 261.158843,566.080325 299.312086,560.00055 C325.599297,455.979213 419.809919,379 532,379 Z M295.858895,624.545187 L304.141105,655.454813" id="Path" stroke="#000000" stroke-width="24"/>    </g>    </g><g id="notion-avatar-nose">      <!--?xml version="1.0" encoding="UTF-8"?-->    <title>Nose/ 7</title>    <g id="Nose/-7" stroke="none" stroke-width="1" fill="none" fill-rule="evenodd" stroke-linecap="round" stroke-linejoin="round">        <path d="M649,600 C669,606.666667 679,620 679,640 C679,660 669,673.333333 649,680" id="Path" stroke="#000000" stroke-width="16"/>    </g>    </g><g id="notion-avatar-mouth">      <!--?xml version="1.0" encoding="UTF-8"?-->    <title>Mouth/ 1</title>    <g id="Mouth/-1" stroke="none" stroke-width="1" fill="none" fill-rule="evenodd" stroke-linecap="round" stroke-linejoin="round">        <path d="M549,759 C575.12979,773.666667 603.12979,781 633,781 C662.87021,781 682.87021,773.666667 693,759" id="Path" stroke="#000000" stroke-width="16"/>    </g>    </g><g id="notion-avatar-eyes">      <!--?xml version="1.0" encoding="UTF-8"?-->    <title>Eyes/ 2</title>    <g id="Eyes/-2" stroke="none" stroke-width="1" fill="none" fill-rule="evenodd">        <path d="M570,516 C587.673112,516 602,530.326888 602,548 C602,565.673112 587.673112,580 570,580 C552.326888,580 538,565.673112 538,548 C538,530.326888 552.326888,516 570,516 Z M708,516 C725.673112,516 740,530.326888 740,548 C740,565.673112 725.673112,580 708,580 C690.326888,580 676,565.673112 676,548 C676,530.326888 690.326888,516 708,516 Z" id="Combined-Shape" fill="#000000"/>    </g>    </g><g id="notion-avatar-eyebrows">      <!--?xml version="1.0" encoding="UTF-8"?-->    <title>Eyebrows/ 8</title>    <g id="Eyebrows/-8" stroke="none" stroke-width="1" fill="none" fill-rule="evenodd" stroke-linecap="round" stroke-linejoin="round">        <g id="Group" transform="translate(530.000000, 490.000000)" stroke="#000000" stroke-width="16">            <path d="M64,10 C59.1947065,3.33333333 51.1947065,0 40,0 C28.8052935,0 15.4719602,3.33333333 0,10" id="Path"/>            <path d="M218,10 C213.194706,3.33333333 205.194706,0 194,0 C182.805294,0 169.47196,3.33333333 154,10" id="Path" transform="translate(186.000000, 5.000000) scale(-1, 1) translate(-186.000000, -5.000000) "/>        </g>    </g>    </g><g id="notion-avatar-glasses">      <!--?xml version="1.0" encoding="UTF-8"?-->    <title>Glasses/ 0</title>    <g id="Glasses/-0" stroke="none" stroke-width="1" fill="none" fill-rule="evenodd"/>    </g><g id="notion-avatar-hair">      <g id="Hairstyle/ 53"><path id="Path" fill-rule="evenodd" clip-rule="evenodd" d="M613.5 244C654.093 244 687 274.026 687 316L686.997 316.645C689.603 316.22 692.277 316 695 316C723.167 316 748 330 770 373C792 416 781 435 792 448C803 461 820 467 828 493C836 519 815.241 509.298 816 550C816.54 578.966 832 566 832 617C832 635.647 819.419 660.857 821 689C823.742 737.831 843 729 832 770C821 811 720 812 720 812C720 812 772.427 660.662 768 621C763.573 581.338 746 498 746 498C746 498 729 468 702 468C675 468 688.707 428 659 428C637 428 615 461 615 461C615 461 598 428 573 428C548 428 533 434 510 461C487 488 450.813 483.582 443 498C433.328 515.849 463 540 443 556C423 572 396 533 388 547C380 561 364 604 364 604C364 604 361 585 347 570C333 555 238 566 238 634C238 702 328 713 328 713C336.734 731.3 356.173 756.65 388 790C407.189 810.107 459 841 459 841C459 841 452.439 895.974 450 915C447.857 931.712 419.356 966.144 377 979C361.306 983.763 334.64 977.763 295 973C295 973 282 983 282 992C282 1001 294.5 1015.13 311 1014C295.75 1022.85 280.417 1027.51 265 1028C249.874 1028.48 233.545 1025.6 216.013 1019.36L215 1019L214.986 1018.93C193.84 1014.34 178 995.521 178 973C178 953.068 190.407 936.034 207.92 929.2C209.175 926.563 209.868 923.83 210 921C210.144 917.911 209.623 914.604 208.438 911.078C194.977 902.812 186 887.954 186 871C186 854.808 194.188 840.529 206.649 832.076C206.968 829.645 164 798 164 770C164 742 181.927 736.836 182 725C182.155 699.814 167.923 696.541 171 675C174 654 193.652 643.114 196 632C201.615 605.424 194.409 567.818 196 556C203 504 246.225 477.707 245 477C221.564 463.469 238 428 249 416C260 404 286.64 394.956 298 390C296.038 369.821 297 336 316 317C335 298 356.303 292.454 388.365 297.864C392.538 265.434 432.419 240 481 240C512.538 240 540.41 250.719 557.226 267.112C570.706 250.535 590.913 244 613.5 244Z" fill="black" stroke="black" stroke-width="12" stroke-linecap="round" stroke-linejoin="round"/></g>    </g><g id="notion-avatar-accessories">      <!--?xml version="1.0" encoding="UTF-8"?-->    <title>Accessories/ 0</title>    <g id="Accessories/-0" stroke="none" stroke-width="1" fill="none" fill-rule="evenodd"/>    </g><g id="notion-avatar-details">      <!--?xml version="1.0" encoding="UTF-8"?-->    <title>Details/ 3</title>    <g id="Details/-3" stroke="none" stroke-width="1" fill="none" fill-rule="evenodd" stroke-linecap="round" stroke-linejoin="round">        <path d="M491.752948,639.020916 L486.914511,658.42683 M511.752948,639.020916 L506.914511,658.42683 M531.752948,639.020916 L526.914511,658.42683 M789.247052,639.020916 L794.085489,658.42683 M769.247052,639.020916 L774.085489,658.42683 M749.247052,639.020916 L754.085489,658.42683" id="Combined-Shape" stroke="#000000" stroke-width="12"/>    </g>    </g><g id="notion-avatar-beard">      <!--?xml version="1.0" encoding="UTF-8"?-->    <title>Beard/ 0</title>    <g id="Beard/-0" stroke="none" stroke-width="1" fill="none" fill-rule="evenodd"/>    </g>      </g>      </svg>